<?xml version="1.0" encoding="UTF-8" standalone="no"?>
<svg
    xmlns="http://www.w3.org/2000/svg"
    width="112.08113pt"
    height="86.547935pt"
    viewBox="0 0 112.08113 86.547935">
    <g
        transform="matrix(0.1,0,0,-0.1,-143.91887,190.85144)"
        style="fill:#d36d5d">
        <path
            d="m 1930,1901 c -42,-14 -94,-42 -120,-66 -21,-19 -39,-24 -106,-27 -65,-4 -91,-10 -127,-31 -156,-92 -185,-309 -59,-440 73,-76 94,-82 306,-85 l 189,-4 -6,-93 c -7,-130 6,-139 101,-67 18,14 56,56 84,94 48,65 53,68 92,68 154,0 276,124 276,278 0,159 -107,270 -270,280 -60,3 -80,9 -100,27 -63,57 -190,89 -260,66 z m 132,-65 c 21,-8 50,-21 65,-31 l 26,-18 -33,-27 c -30,-25 -39,-27 -94,-23 -67,5 -104,-11 -93,-40 5,-13 16,-15 55,-10 58,7 106,-14 130,-58 17,-29 45,-38 57,-19 4,6 -3,27 -15,47 l -22,37 22,18 c 12,10 41,23 63,29 143,38 285,-77 275,-223 -9,-123 -104,-208 -233,-208 -57,0 -64,-2 -80,-27 -34,-53 -98,-133 -106,-133 -5,0 -9,28 -9,63 0,98 6,95 -220,99 -214,3 -227,6 -288,69 -96,98 -77,259 38,335 47,31 140,46 140,23 -1,-30 -27,-69 -60,-91 -37,-25 -49,-53 -31,-71 8,-8 17,-5 33,10 65,61 130,45 185,-43 10,-18 12,-18 28,-3 15,15 15,19 1,47 -18,35 -71,82 -93,82 -35,0 19,101 73,136 33,22 94,43 124,43 14,0 42,-6 62,-13 z"/>
        <path
            d="m 2284,1639 c -4,-7 -7,-36 -6,-64 2,-64 -25,-110 -75,-131 -47,-20 -108,-11 -97,14 4,9 9,33 12,53 3,27 0,38 -13,43 -24,9 -35,-1 -35,-33 0,-46 -30,-74 -86,-80 -40,-5 -49,-9 -49,-26 0,-18 6,-20 60,-18 33,1 65,2 70,3 6,0 29,-5 52,-11 59,-18 116,1 169,56 32,33 45,40 58,33 9,-5 29,-8 44,-6 38,4 38,42 1,46 -39,5 -61,34 -63,84 -1,31 -6,44 -18,46 -9,2 -20,-2 -24,-9 z"/>
        <path
            d="m 1585,1480 c -10,-16 13,-49 47,-66 44,-23 132,-15 161,14 17,17 19,24 9,34 -9,9 -19,9 -45,0 -48,-17 -81,-15 -110,8 -27,22 -52,26 -62,10 z"/>
    </g>
    <path
        style="fill:#edc5be"
        d="m 63.496058,73.043012 c -0.172343,-1.257397 -0.31335,-3.79698 -0.31335,-5.643525 0,-7.18977 -0.37338,-7.333582 -20.449433,-7.87611 -22.93329,-0.61974 -23.580083,-0.748507 -28.881675,-5.749762 -2.526893,-2.38374 -3.8783254,-4.17132 -5.2466029,-6.939848 -1.7942925,-3.630495 -1.843005,-3.87369 -1.843005,-9.200505 0,-5.330033 0.047775,-5.568143 1.8491025,-9.21285 C 12.29046,20.975724 19.57398,16.223559 27.334612,16.204164 c 2.226735,-0.0053 2.340503,0.06008 2.338755,1.349235 -0.003,2.055255 -1.650577,4.44843 -5.682952,8.253683 -4.02801,3.80115 -4.744403,5.341372 -3.308933,7.114095 0.87864,1.085077 0.991973,1.102545 2.406803,0.370905 0.816615,-0.422288 1.786372,-1.131233 2.155027,-1.575435 2.271465,-2.736945 7.93146,-3.673718 10.933148,-1.80951 1.83771,1.141312 4.629503,3.97959 6.2667,6.37104 0.603,0.880807 1.375223,1.60146 1.716045,1.60146 0.939758,0 2.762513,-2.15193 2.762513,-3.261398 0,-2.896357 -7.684816,-11.028562 -10.421843,-11.028562 -2.24583,0 0.08706,-5.708843 4.149158,-10.153418 3.683085,-4.0298775 10.440532,-7.0930875 15.647362,-7.0930875 3.356978,0 10.41348,2.6743125 13.538535,5.1309155 0.967425,0.760485 0.953858,0.802522 -0.739132,2.289802 -3.188115,2.80074 -5.56911,3.5772 -9.829688,3.205545 -5.891175,-0.513892 -10.37337,0.87402 -10.37337,3.212115 0,1.957163 1.239255,2.38947 6.54495,2.28315 4.506938,-0.09032 5.288093,0.02798 7.450043,1.127993 1.558695,0.793087 3.089325,2.141002 4.316152,3.80094 2.085188,2.821327 3.371528,3.7302 4.946738,3.495157 2.16663,-0.323287 2.198722,-1.566225 0.144922,-5.612535 l -1.92816,-3.798765 1.640685,-1.369702 c 4.391505,-3.666188 13.397168,-4.822185 19.372561,-2.486723 6.127597,2.394945 11.075009,7.448078 13.189019,13.470855 2.96373,8.443635 -0.67306,19.396988 -8.071252,24.309106 -4.25451,2.824837 -7.27914,3.739935 -13.605397,4.116292 -3.116693,0.185415 -6.033646,0.548265 -6.482108,0.806333 -0.448478,0.258067 -2.08149,2.24313 -3.62892,4.411267 -3.534675,4.95249 -8.115878,10.594283 -8.602688,10.594283 -0.203422,0 -0.510877,-1.028783 -0.683227,-2.286188 z M 78.555158,51.2683 c 1.272915,-0.62274 3.82293,-2.52486 5.666708,-4.226933 3.947017,-3.64365 4.976572,-4.249763 6.308872,-3.714128 1.197758,0.481553 4.794885,0.58002 5.886473,0.161138 0.436222,-0.167393 1.016512,-0.721748 1.289535,-1.23189 0.772477,-1.443398 -0.265215,-2.792558 -2.62638,-3.414705 -4.281608,-1.128173 -5.635163,-2.939798 -6.12633,-8.199608 -0.417975,-4.476052 -2.031548,-6.15441 -4.012418,-4.173547 -0.717525,0.717532 -0.980505,2.030647 -1.254052,6.26169 -0.490238,7.582777 -2.312655,11.044312 -6.980821,13.259505 -2.657775,1.261193 -7.278652,1.58328 -8.762857,0.610793 -1.158593,-0.759143 -1.169273,-0.83007 -0.50853,-3.377318 1.364685,-5.260988 0.628665,-8.300198 -2.010105,-8.300198 -1.600185,0 -2.26518,1.01865 -2.685105,4.113075 -0.200483,1.477403 -0.755985,3.283628 -1.23444,4.013843 -1.047923,1.59933 -4.264035,3.103163 -7.51755,3.515153 -1.311885,0.166125 -2.884163,0.61323 -3.49395,0.99357 -1.154565,0.720127 -1.522298,2.818815 -0.594405,3.392287 0.28287,0.174818 3.553545,0.300218 7.268175,0.278655 4.553445,-0.0264 7.556572,0.194025 9.21765,0.676635 3.64419,1.058783 9.30819,0.761835 12.16953,-0.638017 z M 31.775895,50.153845 c 2.421217,-0.63915 5.38806,-3.230865 5.19222,-4.535715 -0.28791,-1.918321 -1.514355,-2.110058 -6.158475,-0.962798 -5.07015,1.252508 -6.796223,1.035015 -10.32243,-1.30065 -3.673223,-2.433045 -6.912233,-1.846185 -6.20352,1.12398 0.319987,1.341045 2.916165,4.11489 4.749412,5.074448 3.003023,1.571835 8.145645,1.814272 12.742793,0.600735 z"/>
</svg>